<mxfile host="app.diagrams.net" modified="2024-05-31T23:01:08.602Z" agent="Mozilla/5.0 (Windows NT 10.0; Win64; x64) AppleWebKit/537.36 (KHTML, like Gecko) Chrome/125.0.0.0 Safari/537.36" etag="rVPB1gqGB8AkrbjQa4s5" version="24.4.10" type="device">
  <diagram name="Page-1" id="AimXEOOixnvqJ6CC2RX4">
    <mxGraphModel dx="1050" dy="557" grid="1" gridSize="10" guides="1" tooltips="1" connect="1" arrows="1" fold="1" page="1" pageScale="1" pageWidth="850" pageHeight="1100" math="0" shadow="0">
      <root>
        <mxCell id="0" />
        <mxCell id="1" parent="0" />
        <mxCell id="Gr1HUVY5OGs7o_nDg_ht-1" value="" style="shape=cube;whiteSpace=wrap;html=1;boundedLbl=1;backgroundOutline=1;darkOpacity=0.05;darkOpacity2=0.1;hachureGap=4;fontFamily=Architects Daughter;fontSource=https%3A%2F%2Ffonts.googleapis.com%2Fcss%3Ffamily%3DArchitects%2BDaughter;size=70;" parent="1" vertex="1">
          <mxGeometry x="200" y="250" width="320" height="220" as="geometry" />
        </mxCell>
        <mxCell id="eIgD3YWVtO_H8hnRo5ie-1" style="edgeStyle=orthogonalEdgeStyle;rounded=0;orthogonalLoop=1;jettySize=auto;html=1;strokeColor=#FF0000;" parent="1" edge="1">
          <mxGeometry relative="1" as="geometry">
            <mxPoint x="490" y="355" as="sourcePoint" />
            <mxPoint x="540" y="355" as="targetPoint" />
          </mxGeometry>
        </mxCell>
        <mxCell id="Gr1HUVY5OGs7o_nDg_ht-5" value="" style="rounded=0;whiteSpace=wrap;html=1;hachureGap=4;fontFamily=Architects Daughter;fontSource=https%3A%2F%2Ffonts.googleapis.com%2Fcss%3Ffamily%3DArchitects%2BDaughter;fillColor=none;dashed=1;" parent="1" vertex="1">
          <mxGeometry x="230" y="280" width="250" height="150" as="geometry" />
        </mxCell>
        <mxCell id="Gr1HUVY5OGs7o_nDg_ht-2" value="" style="ellipse;whiteSpace=wrap;html=1;hachureGap=4;fontFamily=Architects Daughter;fontSource=https%3A%2F%2Ffonts.googleapis.com%2Fcss%3Ffamily%3DArchitects%2BDaughter;fillColor=#fff2cc;strokeColor=#d6b656;" parent="1" vertex="1">
          <mxGeometry x="320" y="365" width="45" height="30" as="geometry" />
        </mxCell>
        <mxCell id="Gr1HUVY5OGs7o_nDg_ht-4" value="" style="triangle;whiteSpace=wrap;html=1;hachureGap=4;fontFamily=Architects Daughter;fontSource=https%3A%2F%2Ffonts.googleapis.com%2Fcss%3Ffamily%3DArchitects%2BDaughter;fillColor=#f8cecc;strokeColor=#b85450;" parent="1" vertex="1">
          <mxGeometry x="420" y="330" width="30" height="20" as="geometry" />
        </mxCell>
        <mxCell id="Gr1HUVY5OGs7o_nDg_ht-6" value="" style="rounded=0;whiteSpace=wrap;html=1;hachureGap=4;fontFamily=Architects Daughter;fontSource=https%3A%2F%2Ffonts.googleapis.com%2Fcss%3Ffamily%3DArchitects%2BDaughter;fillColor=#000000;dashed=1;" parent="1" vertex="1">
          <mxGeometry x="550" y="280" width="250" height="150" as="geometry" />
        </mxCell>
        <mxCell id="Gr1HUVY5OGs7o_nDg_ht-8" value="" style="triangle;whiteSpace=wrap;html=1;hachureGap=4;fontFamily=Architects Daughter;fontSource=https%3A%2F%2Ffonts.googleapis.com%2Fcss%3Ffamily%3DArchitects%2BDaughter;opacity=50;" parent="1" vertex="1">
          <mxGeometry x="740" y="337.5" width="30" height="5" as="geometry" />
        </mxCell>
        <mxCell id="Gr1HUVY5OGs7o_nDg_ht-9" value="" style="shape=xor;whiteSpace=wrap;html=1;hachureGap=4;fontFamily=Architects Daughter;fontSource=https%3A%2F%2Ffonts.googleapis.com%2Fcss%3Ffamily%3DArchitects%2BDaughter;rotation=-90;opacity=70;" parent="1" vertex="1">
          <mxGeometry x="654.07" y="361.32" width="16.88" height="45.5" as="geometry" />
        </mxCell>
        <mxCell id="Gr1HUVY5OGs7o_nDg_ht-10" value="" style="endArrow=none;dashed=1;html=1;rounded=0;hachureGap=4;fontFamily=Architects Daughter;fontSource=https%3A%2F%2Ffonts.googleapis.com%2Fcss%3Ffamily%3DArchitects%2BDaughter;flowAnimation=0;" parent="1" edge="1">
          <mxGeometry width="50" height="50" relative="1" as="geometry">
            <mxPoint x="340" y="430" as="sourcePoint" />
            <mxPoint x="340" y="280" as="targetPoint" />
          </mxGeometry>
        </mxCell>
        <mxCell id="Gr1HUVY5OGs7o_nDg_ht-12" value="" style="endArrow=none;dashed=1;html=1;rounded=0;hachureGap=4;fontFamily=Architects Daughter;fontSource=https%3A%2F%2Ffonts.googleapis.com%2Fcss%3Ffamily%3DArchitects%2BDaughter;flowAnimation=0;" parent="1" edge="1">
          <mxGeometry width="50" height="50" relative="1" as="geometry">
            <mxPoint x="120" y="430" as="sourcePoint" />
            <mxPoint x="120" y="280" as="targetPoint" />
          </mxGeometry>
        </mxCell>
        <mxCell id="Gr1HUVY5OGs7o_nDg_ht-17" value="" style="endArrow=classic;html=1;rounded=1;dashed=1;dashPattern=12 12;fillColor=#e51400;strokeColor=#B20000;curved=0;" parent="1" edge="1">
          <mxGeometry width="50" height="50" relative="1" as="geometry">
            <mxPoint x="260" y="300" as="sourcePoint" />
            <mxPoint x="450" y="260" as="targetPoint" />
            <Array as="points">
              <mxPoint x="490" y="300" />
              <mxPoint x="470" y="280" />
              <mxPoint x="240" y="280" />
              <mxPoint x="220" y="260" />
            </Array>
          </mxGeometry>
        </mxCell>
        <mxCell id="Gr1HUVY5OGs7o_nDg_ht-19" value="" style="shape=parallelogram;perimeter=parallelogramPerimeter;whiteSpace=wrap;html=1;fixedSize=1;flipV=1;size=90;fillColor=#60a917;strokeColor=#2D7600;fontColor=#ffffff;" parent="1" vertex="1">
          <mxGeometry x="90" y="130" width="340" height="90" as="geometry" />
        </mxCell>
        <mxCell id="Gr1HUVY5OGs7o_nDg_ht-21" value="" style="ellipse;whiteSpace=wrap;html=1;hachureGap=4;fontFamily=Architects Daughter;fontSource=https%3A%2F%2Ffonts.googleapis.com%2Fcss%3Ffamily%3DArchitects%2BDaughter;fillColor=#B3DB2E;strokeColor=none;" parent="1" vertex="1">
          <mxGeometry x="190" y="160" width="45" height="30" as="geometry" />
        </mxCell>
        <mxCell id="Gr1HUVY5OGs7o_nDg_ht-22" value="" style="triangle;whiteSpace=wrap;html=1;hachureGap=4;fontFamily=Architects Daughter;fontSource=https%3A%2F%2Ffonts.googleapis.com%2Fcss%3Ffamily%3DArchitects%2BDaughter;fillColor=#D9753F;strokeColor=none;" parent="1" vertex="1">
          <mxGeometry x="300" y="150" width="30" height="20" as="geometry" />
        </mxCell>
        <mxCell id="Gr1HUVY5OGs7o_nDg_ht-23" value="" style="shape=cylinder3;whiteSpace=wrap;html=1;boundedLbl=1;backgroundOutline=1;size=4.800018310546875;" parent="1" vertex="1">
          <mxGeometry x="331" y="245" width="20" height="40" as="geometry" />
        </mxCell>
        <mxCell id="Gr1HUVY5OGs7o_nDg_ht-27" value="A-Scan" style="text;html=1;align=center;verticalAlign=middle;whiteSpace=wrap;rounded=0;fontFamily=Times New Roman;" parent="1" vertex="1">
          <mxGeometry x="90" y="245" width="60" height="30" as="geometry" />
        </mxCell>
        <mxCell id="Gr1HUVY5OGs7o_nDg_ht-28" value="B-Scan" style="text;html=1;align=center;verticalAlign=middle;whiteSpace=wrap;rounded=0;fontFamily=Times New Roman;" parent="1" vertex="1">
          <mxGeometry x="632.51" y="240" width="60" height="30" as="geometry" />
        </mxCell>
        <mxCell id="Gr1HUVY5OGs7o_nDg_ht-29" value="C-Scan" style="text;html=1;align=center;verticalAlign=middle;whiteSpace=wrap;rounded=0;fontFamily=Times New Roman;" parent="1" vertex="1">
          <mxGeometry x="210" y="90" width="60" height="30" as="geometry" />
        </mxCell>
        <mxCell id="Gr1HUVY5OGs7o_nDg_ht-30" value="" style="rounded=0;whiteSpace=wrap;html=1;fillColor=#FF3333;strokeColor=none;gradientColor=#00CC00;" parent="1" vertex="1">
          <mxGeometry x="60" y="100" width="17.81" height="90" as="geometry" />
        </mxCell>
        <mxCell id="Gr1HUVY5OGs7o_nDg_ht-31" value="reflected amplitude" style="text;html=1;align=center;verticalAlign=middle;whiteSpace=wrap;rounded=0;rotation=-90;fontFamily=Times New Roman;" parent="1" vertex="1">
          <mxGeometry x="10" y="130" width="60" height="30" as="geometry" />
        </mxCell>
        <mxCell id="Gr1HUVY5OGs7o_nDg_ht-32" value="" style="endArrow=classic;html=1;rounded=0;" parent="1" edge="1">
          <mxGeometry width="50" height="50" relative="1" as="geometry">
            <mxPoint x="70" y="280" as="sourcePoint" />
            <mxPoint x="70" y="430" as="targetPoint" />
          </mxGeometry>
        </mxCell>
        <mxCell id="Gr1HUVY5OGs7o_nDg_ht-33" value="Time" style="text;html=1;align=center;verticalAlign=middle;whiteSpace=wrap;rounded=0;rotation=-90;fontFamily=Times New Roman;" parent="1" vertex="1">
          <mxGeometry x="10" y="337.5" width="60" height="30" as="geometry" />
        </mxCell>
        <mxCell id="Gr1HUVY5OGs7o_nDg_ht-37" value="" style="shape=stencil(tZ3Zki23cUW/hq8nqgpT4Vm2/4MRokSGZJJBUh7+3ihTp7uZK3vvU9fXb3dAHhSARCLHnd+UP/36/bc/f/fNsf362y8//e27//zhz799/035l2+O44cfv//ulx9+W3/6pvzrN+VPf/npl+/++stP//jxz7///edvr5HXn/79p/+4fuG/fqdrj7pfRMf237//w/Y46//+w7/9PvzvP/z4fxney43h/XHcGT4eA8Pn58P37dFmGD+LGF8fZ//D+P2xHZ+PXz/XRhh/bGL8+ehnGF/G5+PLeGx7GN/a5+Nr4/cMsd5WHmcJ40+x3r49jvg9/9ywfHx/7PUP44/HJvZnrO044vhTjO+P0sL4Xezn+Xb87+MP8f3n2s/9zvj5GHfGz/Ko48748dy+F8fPJ/u+Nn7fttsTtHgAX3UB5bHNOwdwPrZ+Z/z+mOeN8YvhjjvfPyAg9Pje7jHEupDzznpbv7feJSDujV/yKY4vuxi/Pe/3h/FKwM3HEfmtiAdgjT/j+Kper/Xf8Xvk+MH9V+N7fbQ74xf/9DvrHfUx44VX+zmWgIsCUZ3XOJ7vw2vjFz+PyM9yPyvXO8Tv17U/8XumeACWvrH/cb3lcYjv2Us83/JUh17TftZwJW8fNQ5v4nncHmW7MfyIj53+mCU64/CidaVZw/hdsOZ1ki2Ml7rVersiK5xCFyglKqqHVCVLexzxaRni+8tizVu/vz32Pe6POq0SnwrDO/2pOr6PV7rY0oXD01ifytwnmnmQ/FVLEv66ElQ7Hq76ZO58/PloNYxXmt7i5hnvylQPyxYVjSI15/WwBMFTnqZGLhgaL6O6u+2MD4UZ36NlYb5nj7fLrHfJ7bg/U92WI1pqVSoO67+D4lOfL/Fn/DDi+K64v8WHsT6G4rf+GJHfhuCfJcr37c74yf1R31OhCL+Jo88Uwz1+v1EEZvx+ZXmdI0pDLX3m+rkorbr4/bmE653xZ3+y12v8vNa7R/5X399mvF96f9Z5lXheav8XP9TID03It30ZXuBn8fvrte6RH079uofXtMrXd91HrHeq130ZOu3G96zXGvws70t7nJGf1X4u+VzvPHd9ybdbr+l6H/F+if1Z42vcz00ZFot943mp8Q2ONz1+7ece+U2NLzvvi1rv4uce5bn0VOxRu9L6Rn/qUq+xw4h+LvO67NFvaMbPp9vyNWm+dMkRv6eq13pPdlOb4dAe1Ou+uGeL40/1++MpPF6Tzuv3z6gtKem/vr/dGb+0veBn1NJ/8UOPt0Vpn5n0lNLnaWl9EJ5iOFbbnpf5k+HB59a00znyQntuVr7WNw/A+/hN7SVMcK3prZd0xrPqShIe8SU69FU/oyRcl0e8LOcZJa0OWcwSNdVNukzW+GBZvJkmn/mcg+azSR87XZ6blOTjiHbm9jjUywVZuGmXz/40zN7HS5dPjZqPjgGVeS+mU07GOHbtgjpqHK8szR5dmPp7Wo2W2vZUbT7j/2Apb0+fbD5+Rs1q05bCHu+j5ueMf+T4/SlaX/uefnJ8VZoANCXNb8sSx/2a6i06norp+/mqmGAdT3HzPl6J5/r2NL+Pb4o/j6i5aflW9+jiXeOVi73GGKuOOdbJ/VHfs3SBEu+j2h/yv76/vUfL1ESs+1OcvcY/i99GHN+VLtCjZWHlYTgvIw/X9sUYtJJXl2UX+UG7kUc8LskOUfrriHKNZt0u3XrIF9Dx570wfKjexndR/GG8kA3Lyke8Wo0vI74tevySDXsMt8jxneFbOR6y6iv/fol393gqi5+91T2el3pbyvE4Ynivi7f3Un2jF1m91cuuGzEmomTVDq+A9tquu1jveMUOePX075f+DOG8j1d3ffEDvHoqZnTJ8mgHqpgRw9tFyqoOW8T8/k4vuwoHMtyrz3fptrB71f4v/u/wsgt5VWq0w3UUhfyg/RSXqh/9CMqrt0MX07bgui8zjpcxMtxHPZ77o8fTa9ieCVif6YbwC6j9Gcl+Kq/nQL6Y9vKeB6NqcnyJ/G/Gb/SSyu8vcb2aH3qJuqT2PSxdu0RPSNd+sSP+/lReTOzPEpDqviDquASe0h965Lf+FPCf+aH2OL6p92vG906PX+sNXtUu/Yzr/W1x/KHzE494v6Sfced9lH5AuHnfwgyf3d9xx9e1xoPfDvU9cOyZ8VuMijSZbrJ0/xLvl3zf1/fH/VF+28UPQb71Z5LIZ7bFFvlNef3LHs9L36+lD+9xvNE/a9wfdd/5vuv96YhCa/4cNaajaXk1erRfzPgafUvtaUx+5vvZ7uzP0q94Xuq+IOtBy8O2R/mg5U89Y7qYlp9rfPCFaHlY5z15e6U/3pHnrcbz1eslf3Yd9ULOj97/Nb7cGd9mzE/X39OQH2fWu8Wcsf58kD97X7Y4fqj3Hfna/Zl28KJ9NKR+WFr0FY3nB34m3zp+X72n8O2Z8ePpun9tPPnZjK/x/g6pb6/xIV14jVfvY4mhrKHf6y3am0P6htd7MeP+KF8d7bUhffOMyw4pb5neesr3d42fGK++H/xzSnleEcsy49fzc+v34U84pT5QR9zP0/nag351Pg2CT/WHLYyX71GL9s6p5VWN/qJT+9pbvI9vCuyL/rpT1ves+xJioWb88byuL4+f+H31PuL3p/TfMrYwnwfy2fkGfWzKWBljL1PWk12xlBAb2TSDMviySY8a8wIXQdVXMrigHcGIPpr9Taq+yERmDSwauXZJm4UDM0iCDXVueg2sM7lKCZUlxijepq8yXOOLQN2dRbDjHKb6pB6F9UWgtANox44A1V+G4MozCru0ywud8NIuNYS1hhhP2p8y/LODCyb0IlAxgbWtMR6260e/I+C5ywjjWkO8onoGpj8tAhnTPqJdcy1apb+iLsrNgNKWfZcJpIuXwlO7HzqPYkBUHjpwPmLK7yIwd5ozyPLbiRunZ0gE2SEDLlSA3QwZgUqfosttEcjMaJTw7UUG7RZ7ByVmEaioRXJFi0wpohq/CJr6JNhFe5FJY3Q8GIJE8ulPagdka5F5cswT8gTxipo1lGQNKlzA8Ndepb3Mcs1FoByml3KyRQJ5RSmM6/PSvk6gYnLrk0J+2kWgNIEzGkl701YeM2iadoNO3Icm84ETYdx0ne0ZDf9F0LX0jnKpydAZTbG961hej7bz3mWa7FpDvEBdRo8T9ecN7+BVIWAJInvrNdDhsQhUBCR5srp2eUyoP13fB6rSw7F3POmhvcx8gYZ0GyTmgCHYoZFZgmjSDJeBP0GgXK8sQFwE0tdAUTlk8LZ2KImnzESmN+PKHdPhqx0EklszgqbLVoJDxs1AcW/WQKlxajEzYcedUggkF8jMQOXELJqscWohQFX6lEmHybZO7ZnkDFOnYfMFmjJXK5F8pw4O7jGYfi1aqT+0sk4ZjmMqvJuB74NddJQaU0fsz6dz6AOBDLGNGLK5ShWNDxdrcAQDBPfsuKldXrzTU7uLaLFbgqjzmU/KDk6mTfONm9aXG3I7dWHIMgeCb+Y9XewzgsAarjQkI1D+2Vai1Dg2baFki5bZ/VDhjl2HEBBCvvLdlbiHML5ynDV7H39kDZ/FG+xpk2ZLx6CbAUqiSbxOt1Utmv4lkzhOV4ufIbgpTDI4IRUusCStt8ZFa7QeekOPQ5v4GYFxU0Q8IEOwx2o+TxBT5g/tCMGj6Alikr0GEUp2Sad5r/sQ16DzgPkougLVERNdTYUqH0VTkksl0dXkEhruLsSIySZPDq5IZw7Vn6NoZw48Jw7GAb5KU2eenLQu/U1KKnQtOONxjoAnbQj4ZFmCCDNo0BmgL5nE6eTJato3A++PSQWlf8nlEmefJAm4rTpbk9lPF8GtUlpHQPXnLWPj1StqMiopW7tzPUZeMjl9vA/duR6jbO3aEcKT7s88vBdtUZeXRVhDkzi1QdG1BHHRw3kd4gUaOpfiBNTlcF6HhhnueR2udKtbIcKLQCvrUQjoGegTuEoObwVSPcEAgfM6BAKdBJbcaZ0VlcilU6e5Iq39ynPS3JoQaE0gIdBriHLplKmidQKZ9dRmGe/D1DeOKtx8puO+KpemC3NGUTn1FaWiO7U3lFJjOhsoAsCaXUIsy+V4EaLYLJrvtMkKo4I1dck2nGqLQKaQUF+aLoWEzGckX7TYdWpbenCGoJNAGa8wLcumBRliKBcGp44DBd273E1tK5sGU0BAu5gsL1goV02NVrA2EChnTrJonVLFooxFIO80XC0X5oB2tQS99SoMMkkqZyRQSVuMxxWdg8U3rhyydJHvQzl05iacakVn5lBvLTozh+9DKRrkDXqrI4DUWJ9kEgDjBbLZRTwHk8IchcAh49N0IlwEWnWIYGk64YlB+UUgUdS5S8U5BiNr6AypBDDNJAtli5ZeOIqZIp0I6aKV754P+yJQsGn1BKZo1SmGvKLV+fkaCGTBP3z3i0AZ4KxgWATGz1c5wy0f2YV8fatI61q0unGEPa/OMRisLDdD9klmDZH5vmCXZCkPRaVN2gp5AhcGqv6k4ES4IM7vXSBNQJ3PE0QxoxPPEmH8JQQmBR1rkDWOlN5NF4Fmu6S8oSmBckgl3KqT5xJhbAm4rY4Aa1A+MsanS9e1hTwHmwsXNeOuq+l5H7qW3rzTXUtvXtEuvT+JEPiCGcwaEoJb6Uh+hg27ZJ6s4HUoOnmOUZpicuFgTy8CVYhGe7qczqMbF22S59hQQBPQBWw+KRHGX0KgPymqoTpTLbmiJlONV9RkqpFbTaYaD85kqlGrnLrGj3d6uhSSAQJZUMc3zhDQPDYEcDIXnb+UEkgXMNIvFoHM18B9qBo4lFKjauRH5qzXXZv4PfJSNViaGYEpCoxtMHattyI+XU06EjLVqsEbhfu0mqaFuEDVQEZCeledXUTPetVtzGhlVd23KiVwrvjtFgF3Sef+8EExBNQqzSdRI6saTpHivuoeSnSq1eK8cPECFV1AxG01kIdkb52kQuldNYA5lfVqMnNgHlfTzASyteo0mGQG3Z6B2n3VKO8JL2loQhpNV/mBfkVjByCNsk/ffTXogZxBA/MnazD4Y1CwqsbyZ1y0akSx5Byac7VwDSYNpmCXjDkQuVWjkCVvnIGlA+xINbhTfHa7zpBC/cP7v3xGEJlPQxkxOnARmNJJrEHOgDCnWwMUXU8Qxb35JJgDVQM4JTPovBnaD9dGa9NygkBa7NxWA9oDW/RSiO6pcKdT4eIV1Tg2iRCwBPGKGgK+QJYgKokm5wTpqlWD6ySydToTP97pqbEpyK3TWbshf+nSPrQ2E58sneuQKCd6Dcm2mowQnrTOCEl0DZ0RkqihU8OCwSFVTb4G4kBt09VrBKo0uD+wFC921HXsgTWaxf05MIP0ayBadm30PclnklQQy6o6hYQJgG5bkWJ4MbyGmhjY1nuoPE0neKS8ZFB5yBouZI41yOQ5tDi5XIXKk1iyGZTUAJDg9WIoVbqgJ5Y+ByZiNpsGE6KWzSSpsE2XBtmhMG4GKAhByCuTxiBHgPlM0taBNUgCiHuzhnUOG2YwJXsNMxiwoyj5DJwS8peazv1JTvpw1Zzxkw7ttoOobDaVp4BAPbt845pOUqE204qMTzOfz6yBPuNmsosol0zuD3mpOEdISDxrGrsouQ8WKCi+QEWXxpCXTFYLtPtFYLwO8ZM0Kk8iKvUnEReyaaCga09wDgpe7P2LXycgt8oIOF+gqqUGXyCzrVB0mwE7gpN5EciMwRrxKlvTgK1H1MiazqaoG14gnU1BSNuLQInKPaKQuBkKdG+zBnYJMak8cLU0k7RFTUDnkeWscStDys9AIWAypCIWvYG14pNl8pfg52sGpQpxoPe2z6+aNGaGbNH3Ou+aXUqUE41HlvRIsQRRIzOfRPvBJp5xl+Q5IJO56ZSqxDxuGn6yJYJM1vihwLTZDKnYhrdJ5+Z6UGIzEC352psP+uO2qoNDa0tHMPCwm08C4L9bNMrdzLYm6o/OIyN+azMwbwCdupqna1T4+MYZAmAyu09CSMRwKyss3DmgL6NnvkFeUtrMgIJl8irRCPTiLq0k8n1QIUKG17wQiKqDBvQjXLdjjS0ijrculfW6JTPIgMUWexg4ghKbUjoCPruaIJF8huCE/aAJ2Mim6dzQXtA5TAMr9v2pQ34gkBrZiL20ms6rJLTv9QBoBSvEgZrBegR6XjPZpwXPriHYoRn7GXAOctFot910fmuizWjWSN44facXt55gPpUn0LfkBVLvQ5sJe8tMhAHz2Nw4OmgNe9NCMQeHbDvHGhXNrAzBkdwHw3yxvaW5QMDsN4tOPImGWys0AS2X2ojt7R17nzAHDAGVRMMabykpr+4SPbomjZ76kgGtrQi6dB1p2tG5UqPclgkhoFFur15VmEE2x9kRwDNp9DV2q3IzIHmuDV2hnT1ZsgY8k62GIGoCBqmXSuJwYBYhQ6pZHN3olTalAAUWisGg3fE+mDT6De/0KcP+CbeeGuKAeuupQ+a8cWYGajN6DUtqRF7Su/RuwHw8B8VL5NZTJhaw/9l7R+FPzWPwkgqZM0ll6QbmTkedT5cCJOxt4FhpNFlIWa7BdO+JvhldYZGwhq7hSFjDEIzYqb5p4N137n91DehFbQ5ufVL0JOpzaD12X22mhoNh/+lSqqKSOLUBjgSPrkFr6efrmwM1D1qlJ2j3ZsAFMmtIXiBTGlPhXzLnkLGGPOkJ74/hpQm/tykgOhEMNjNQGNuKo+jymq4OJdpA+hzeE84/nrR6FBFec7wEne+yHbXeGvwai+AQ50CjqWvU55S97yXamEVfXr39zrYm7iJzgSbMMkOAxuLuk+ANdbuE7j1dl7vRr9E3V6IUIn59053R0B3REbwBKr9KsCey9evOgB4Wbpeghl7noNORYk9sw949EZWyaybDOlPn8w1ktUwNt9dgDhjZmilYpkKbaqhMqWLQxXQ22BI1VKWrXnXAsLKMDRTVUG0/kPmaLktP0vOGVhIbXlFdi3998T1nzsQnWXcRXY/SBmJmjvHN0BwY2n7AO30pRPoVjfHpU4r7qwh9B4E4uKuQHgQq0lTeUto/zqDuA52bxq+BbOzLyNHxuCjI9DlcIREQOKOJMyhVmkEXjRyR+FuHhV6hE+GeeWzEDN3YpgkMQ4RaVJYTu6R170Uwb70PSVjHEGQmvmyEOZ7JeC86EXqBR1fvUu8oNtA+gT6SgzMEfBTlJzXEdvXB9bd67FctxTP67o39QE1gEUj2phq66zoU8FI3EAeIgHeDJwD3aTd4AtsziPOBQGJTHM/43qsz0K9hupWgkKtr1IX3COIHAqWRrXMNb9x1cOKT1o0LPjJz0r1GRdfP0MAaqn56/feskUAqujAtu2kzU6PubU6aOl83yBEtPlld90NJjKZDIzFuUXUwBIxlLQJZGrPDC2cWjViWu0Co2+27LjZAryl/gQa4VVZNUbZq6JWcQAeDI/NpgBraop6947aapkgIEZqTJjyxYT4mYvbjJtT1RXCrx9H1rt5z5pg10F1k2i7NZA0yPW/GZFJ3DtkMsi4LeQJdt11KeEm3XWImczdtlwDusghkrSVS0LtvKDRAoKGuB9Yg5VLHOehOUG3GWhqzS5fuMm8SRMeg7tOUzqDyNZYU2vc755Cwd9WJ+uTWqv2tvNO6ixLjD71qqUFB1lzvhKi3arwZFpiaGRjA67qxU7poCZaKqqmuG2yxx5GbASV75hxYVbt26R5KVTfdrFKCWyHCrsGO1i4dPAdT0s1zuCe9DSQUSva6gYRCcoS/QCGs4y4QIn5d4y8RdaGbNmQtFvp2jb+0ZmggkJ+EUuIvutN3eUmeAwmaLv9kLEsjbRGKyJ0D2vJ1A2uVnYNMJkUB0UWgcx2irmEIUEV4rUGfA9cgU9ArFF2DFkblRJ8DI03+kxpmMP2yYqi2264xIJAFpkiT7KbhHPpPd9twLmqVGgeL5Z9dA5ixunkRyMJ3JGJ2jdrGxORuWgt2yKUuM2ivqsSONei0sIIZHOJZuA+m8R8SxC8f7z2/xtAqXAMvDZ0RkjKf2lZKb92AkXlk7hyQC+eYDxUWbgYyn1kDxYy+osTc7BZILkoNAyQHwKZuuh0yM2c4OKWOTzJg2lEz1mtIlPXh6h+iI0R3nWQE3M8QDXCzBopKva2Jm+K82cOi6waMxGrpup8iw2tdt0dk6WQ3DRiBz9cNoB/FjOk6eSSLluFmagJ2hsittutkNJpO/bDzApluh3RjW2y7KJemzpBC8X6/CxloPumCybq1BtYDuU8iL2lAP0rvYXsRhijNMMhzEPfDtBYELtwikOAuKHwfu0tM3kBwKNaAtesIkNk/NAgbUaqG7nbIC2QWTUH2/0Cw3SKgF84TVCza7NJx7xzgkHInnR2cIWj31oB0pGuXNF5leIGG6c2JnMShcRIJH+Pv9MQMspYG9Q9OzLBgQrdtTcwBjd/KXbpeUT0DNWNTxx7fB2sek8Bkn8ZPMl3rM8egbAeXOnO0qIwR8Kb7NNG0tK7HwK1dY8Un+d5mBiBHOOdmQRzIzFBhAzXd/4F5M9r1mPj5dDiBwOy96vtA12OV1m5KILmVlqIhQE6i+yRApLlFM0lFhxOuGfBJBkMqRsvMovGgdN1Wg1BE3bYGiRZK0dIbePeOAG/cIpB3muxd9BWlQ0q3N7lqmhgMVmtAcrWJHqcEEm7vwJNlZijIGDSJBaz8MqxBuWT60jS8QIagIhfOnDTFfdGN/1g6aVijwr9kCBr83oaAgswQUGqYkwa+t5MamaiUfV55cDoCToBLE5QnjI+Li6J2wMXjyBqGgOLehMz5xn1BbFe2BqFsNWF/agKGoMO/ZJQTihnT4wjYdi7XgUJA5wkQUtY97NmNU/3Yae26tDCAOLtMtQIF69DZRUBHcnmVGYEs3gdE2iKQyXPMIzN594w/bLpbCe0HU4tP2BJddlhGUs4gC1caUNtOaZZdDeGJcyKu6CKI5W66IenV2hmfJKFXTiBHGHAXYqqd2mfMskMDUEMITV3uljQfMQQEoj61Q+qIifoeAocANeo+lLeC1Vd5acacRF9gGiEDfSEXzkF6HYi+bVB5iCFl+u1mUESKvVk78CX3QbmLSk9Yw1zRwhkUQQXcniWIOCcaKOi9c/mL9yEp2TPVnFt0tRgcrOSkde1xwnyWILK3ruZMrqguME0x1WRlMKWGrkhNwFI1LhxNGodtR2xs08CdOOu6QjtBQTeAr2he6AigOrhPIkSaLktP8PkM/CRK9tw5ZMC7EmOQN87UsaMuy/NSBKgxgH5Ik3R4AgT0GxpBPMPnk2H/rEJbZqoRzGLo1IVsBpnKg8SzZtrcdwA2GVy4DrwZgwtHdCT9il7KP/UlVWFRkkdRgtay9ljrfL3fRL/ICe59kiEoyQyKNa6SWC5aI/XS4DBIvYQMlHgzHa1yvjbBSFjDEMQb97VnYCsEzd7MZPZokhEY5ZR5xkmjAgNQkwEryqQtinuDnlcT9DxpZWXoef80EF4NJ5gZ6CPbdNgfKSQvwO3BryE/Kdsl1fgvBZ1SPfAurJZblfJlIJCqC31LB56Adkh9CUEs6daoC2sN0ZOoq5tpT5vi/UXA4n25rV9AEE/afNJ4Vku/uujspM22xsJGc3AACnJwGQzgaUyExCttZmDV1K4zcwDy3w8bQzkigcFEYKTp0JZiQFJxcSCCKJgYO0waHweK9UAmdYHnUGUDlST3x0Sa7hajpQTGeI0HZxJtuAaT+8OUKlMlwjduWAjNe6UArC0b2jHYwRq2CX1MC9ME7B/nCLJ8b1new4rUUxdyVfDSqa1dVqSaBHFihJg0eoamdE/5pBTA9pSPRR93e8qbXOkkHjdvtjHupg84k3pNp3EmxNpe5jFd1SRiZrmhEjIQ4eZhGocDaNTlt6L808xAJBWTEMvCFbNoFu+bnHW2AHbJ1QAPXgTS8MvSt2VAGz6yobtDM5l0EUjVgYnJhyvpniTQeWSRNQ7doBc14GN3EDgNB3evD7gnIGtIGB88KObgkhkOaQ6kM0hQc4DhjUMDNhWUlRy6pBsoJEN3Gr+a8PVIIIUA2vJdBNp92vBJDtEmzGC6dKPGb+jm53zYR9H1osgIWQQSzAKO8lE0nBJqmoZpHM4LZAiAUuUJ4p22BPFBKdp3D0CORWAKrkOk6SIwyUL4JAPu0jCDAXzdQWBQSKJsLVryoXTSLDo9h3uNMM2ik+q1qpPnELUcugk9MzeH7nBNn8DQHa7pb10EpkPduDcDVTizBuqtVSf18j5YAi7afFJUf6pOiGUhV3WlMbEIqmlnDish7/YBH6ZFPLwOhiARAoYANa+OAMXKjoAvkOnoS2VdN91O3gfddJvNqYbpe4yy9KG7HSbcasL+vHE67J+ISksQ3BSOgLXHBrN/j5gIwzTNI7earBZu63AXKL5ABlGfslXjrCeVkDpUm9xpHZ9O6nYNAW1RDcFPALOhQf4Tc8BEj+GQGqalXfZJEi6DaqjOqyTc3iIw7RziG6c7oyUnbcDlyXy64wo9uqdJfUbJ3mnCnFiDI4CP7DQNhYCpdurGTnyyTp0gzhT0RSBj7HhQFoGBaQh23Gmy4qF7nzriR2DFReAUrBEJZPALGFKnCX5Bqzw1cnXCSxornkbTaeofYMc5AohKRwAx42cInvVThwjTT5LA7BBk56GdCABhOw3EMpz9p0F95p0+JLgLTUtPEO+0JTjxSeZ9aCC4Z0+fRdqixGo5bRlueIFOUzpJIaBLJ6lrnLpOkar0qesU010yBEFvPXXdbsLeBogaOOunrfwKJv5ZHch/sEVPUzSOsM6pMWgTYWxi7DDAzQyJELC40vECWYJ4pw0WcDaDQX2OotJi0Eb2Nii3vKIaN5SG32nRVUMK+iKQ+d7wJF4EWghEuWQJ4p02mJsU9wZCkxpZ11B11Mi6ThCn1NDZFDRez6GLZHnjTPoFeclABpJbh4yx00F7GoxBajNDa8aAqrsItC0aFSyDYkipYfI14KY4Lexh3FYLexjvtE6/SN6HqfFbBxSsqStdkK56aqg6OjdPk6+Bah1HACyv0yIAThA4BMDzJkEUZHoNxBg8dc4JdY2pAf2oa8xNl4oh7D/vooVNmxESXtFpcOGgnEyLC9dvEdAbOjWQHC2URWDaX5HA9D0OtujcNSIm2HsRmPuwgUCmkGQHJ2Ea0ANvHjp/CXn306SQoKR7EciEJ6QYTp26QKeaI4CT2RDwfbgITFz0jATSBsI7PU1yBJnvsGAWYQadupBIDZ2JQHyNRSC5FYHURSC5FbAl0wSDkX16EegLFBdtCKCsGwL6+S6CW4mYi8B4EiNr6Ag4fQLTxnaD+jNtfDrkkS0CkyvdQSCRtlICg4KORRsQtig1LAF3ydhxA59k7nQkaFIzTri16VIApF9MG9A+QGBy1k98ksybQYx9dm2WfQFB1ASai/hF6W3WQBWuufqHqGBZgnjjmoZpoBradFwUrsdrW+/pSzoonzyKpuM7AkfTdHyHaTltBDwenI2AB+fm1JXyiTDWhe/JFR3aHEAazLQR8GADTdPxna+oIUBoyhAkVpYliEqiJYgH9/VnCF44v0tR3FuCKO4tQVQS/SeNm4uOBseX7NK9R9EgPFEY69SFxAYyUESAMp0GHemINa/TpC7sEU9gTu11QI2fJ4hSw2BIHbGk260BWI/TgE7VmOrpCBoexVPXA1FU2lr8kzPcSuWZGheOrdQ8wbw7w22CqDoYArpaNEGizRgCJPU6ggKvg84uqlsyg0QLGxHLaxporgp9SWNTlCP6vY3kK1tMxDSy9ZgxSjN1ptoiiAenk+fKjl3SysnapVDDMTW4yzqHAKfk1B/gL5lFp4JM1h5n3CpRSKhKa1BCFq5Mk203Y09588YRxscRtGTRkqBHaF8/A8/BrCE0a3MEW0STNATtjEVQjgA1TUbMrJPeKL1vNWA0b1xiZRlNgG7sqZ3MfKenDokczxyWDwQK/IuAfotA5ZwsqRGK0abO3CxvLoMPBFLytagk7tsm5cyF+LrfowB4o6MgYrdZRmLKTV0cjCI8s7N9j2Aq5uyuFo1QXVWabp8RgXJOGQ++arixaJXolRIc4uW96tBxJRTBO4DAi590gVHAIlCX7pKWIJBFqScUS72trcYsEkPATBhHgMYAjgBYo4bggi8Ce0uCIxEckmCDxNcEx4CVrw/u6DBSNGscPXkiFPMtPTGqrpq9S4mNWN2bskHBf4N9etXlqp+51mLNtTFHCZXoCIAa6AgyDUgSUAhoC/lqikoCoT1cfSlJIA4uEZXalBv7TQt57Jntpwi2xL+p1vAOw/PqtlKbNsw3E/1E+pkbbD+NGsgMPXNFkzCKIUDzG0dAy8xIjZ5JDW2DRz+zaQxwJAen5NIyeKn+qINb4p6vqBJka4ZoyhkCgIg7UbnBz2wIMiVREVyIlvgk5a7sZ2K0K+/jqJnnTpz0GAmBSiV7rz570QYfE/EvbeVfFXS33AJXgSgJlBpaEkecXMOWrMEY7SfeOEmwR4xLb1Lfc20QkdX5+4Gz4wME9DNLAkAlOgLqraYbwoRJbfybJ/RW06sAGJfGU0EUTefU3RP3jHEbU18yrm8GmxTBBQl7aw2pgiWVkyOJ1qptTSWfFGQpgbJ2s0+Sd/qEJmA9d4ywyTsN4GdHgPIyd+OYWmkISmwM8NXv9HnTv1laYnBIggJr1xAcyJQ0BHvyxhmCmD+nn6z1ScmjqHS+bJdkABl9JF2ImqlkBiHgjCAe0wDSj1igMDXwwoVjhciO9GB1eLCGTFYbDVm3XRqvF+oak3O0WRb6Is2ujVe6Hk2+UI+wzGaGJLxrencwZcO04kC/56mb31zo77dYg72Sp+6skQRfhwakR5dHl/PERGBNkOh8hmBGeGxDcHUKRxxSEbzjTb5KUJCBYQiO5OBUWdN7x/aPBOqdrrhAOlqbbqvsoVJgvJpo7d3cs+Q+GIIsE0YSbOBWTcAGb44g0wQkAdDf/QwdCtbX3SX6l0wqWUk0AUkwEk1AgsTy2TU4O9kMsqypJgQSmCfLlDQNceM7rbs8ppaizFNBGzyjL5UjFqU6jWxHkYXJtdmTXZJKIvNUrGbM6IAkGHAMWnOgwGiSkGRoIWcMv9RCMQZ4kviozgFtLIyfr9TE7y0dtLQfdCyrbLE7iAuvTViKNoCXxEWFgpUGv+QaBg5Ox+PYntP77hluNgSMx8lPQvMbt+iZ7JLc1oELZA7urcv2BwLZdKXAV2nyVJjSp1MXEslnWh9vyS4ZAq5BaZXHTILBKl/jOJPAkdIqF0F0tUxZPXlFwLFLhiDmzxmCjifLEjDXQRI0aDOGoEKrtATRG2oISiL5vi5BTaSGZI0O/5Jlvuh10OxdtiTBQ16gLEQoCUrCfIYgGq9fewZqZJFg/eHnb3/7/ve//OWHv//9199++elv3338/7/89Mt3f/3lp3/8+Oe3f/r1+29//m797X8A);fillColor=none;strokeColor=default;" parent="1" vertex="1">
          <mxGeometry x="76.13333384195965" y="279.79999415079754" width="88.80000559488933" height="150.33332697550455" as="geometry" />
        </mxCell>
        <mxCell id="Gr1HUVY5OGs7o_nDg_ht-39" value="time" style="text;html=1;align=center;verticalAlign=middle;whiteSpace=wrap;rounded=0;rotation=-90;" parent="1" vertex="1">
          <mxGeometry x="790" y="337.5" width="60" height="30" as="geometry" />
        </mxCell>
        <mxCell id="Gr1HUVY5OGs7o_nDg_ht-41" value="Probe" style="text;html=1;align=center;verticalAlign=middle;whiteSpace=wrap;rounded=0;fontFamily=Times New Roman;" parent="1" vertex="1">
          <mxGeometry x="311" y="220" width="60" height="30" as="geometry" />
        </mxCell>
        <mxCell id="eIgD3YWVtO_H8hnRo5ie-2" value="" style="endArrow=classic;html=1;rounded=0;curved=1;strokeColor=#FF0000;" parent="1" edge="1">
          <mxGeometry width="50" height="50" relative="1" as="geometry">
            <mxPoint x="335" y="437" as="sourcePoint" />
            <mxPoint x="130" y="440" as="targetPoint" />
            <Array as="points">
              <mxPoint x="224" y="460" />
            </Array>
          </mxGeometry>
        </mxCell>
        <mxCell id="eIgD3YWVtO_H8hnRo5ie-3" style="rounded=0;orthogonalLoop=1;jettySize=auto;html=1;strokeColor=#FF0000;" parent="1" edge="1">
          <mxGeometry relative="1" as="geometry">
            <mxPoint x="290" y="240" as="sourcePoint" />
            <mxPoint x="270" y="226" as="targetPoint" />
          </mxGeometry>
        </mxCell>
        <mxCell id="fGH5r0YYHfr0Ien0E5iI-1" value="" style="rounded=0;whiteSpace=wrap;html=1;opacity=70;shadow=1;strokeColor=none;" parent="1" vertex="1">
          <mxGeometry x="550" y="424" width="250" height="5" as="geometry" />
        </mxCell>
        <mxCell id="fGH5r0YYHfr0Ien0E5iI-2" value="" style="rounded=0;whiteSpace=wrap;html=1;opacity=90;shadow=1;strokeColor=none;perimeterSpacing=3;dashed=1;dashPattern=1 4;" parent="1" vertex="1">
          <mxGeometry x="550" y="281" width="250" height="5" as="geometry" />
        </mxCell>
      </root>
    </mxGraphModel>
  </diagram>
</mxfile>
